<?xml version="1.0" encoding="UTF-8"?>
<svg id="Layer_1" xmlns="http://www.w3.org/2000/svg" viewBox="0 0 358.44 655.83">
  <defs>
    <style>
      .cls-1 {
        fill: #fff;
      }
    </style>
  </defs>
  <path d="M358.44,655.83H.37C-.04,654.42-.16,2.58.26,0h358.18v655.83ZM350.41,647.87c.11-.36.21-.55.21-.73.02-212.47.02-424.95.03-637.42,0-.46-.06-.92-.1-1.37,0-.06-.04-.13-.08-.18-.04-.05-.1-.08-.28-.2-.13-.02-.38-.1-.64-.1-113.4,0-226.8-.01-340.2-.01-.32,0-.65.08-.97.13-.06,0-.11.06-.16.11-.05.04-.08.09-.14.16v639.62h342.33Z"/>
  <path d="M19.93,113.08c.49-.03.88-.09,1.26-.08.38,0,.77.07,1.27.12v430.5c-.51.05-.89.11-1.27.11-.38,0-.76-.05-1.25-.08V113.08Z"/>
  <path d="M337.72,543.63h-2.5V113.11h2.5v430.52Z"/>
  <path d="M47.41,618.73c1.03,2,2.43,3.56,4.56,4.4,5.7,2.27,8.5,6.58,8.7,12.66.02.66.13,1.31.18,1.97.08,1.07.55,1.87,1.5,2.4.27.15.48.39.91.76-1.95,1.74-4.06,1.59-6.14,1.03-2.16-.59-3.49-2.24-4.57-4.1-.13.03-.31.02-.36.1-2.52,3.72-7.53,3.24-10.63,1.39-3.28-1.95-3.31-6.07-1.58-8.41,1.06-1.43,2.37-2.03,4.1-1.75,1.79.28,2.88,1.35,3.6,3.29-.58-.12-.91-.17-1.22-.27-.11-.03-.16-.2-.26-.29-1.78-1.76-3.33-1.97-4.57-.61-1.68,1.84-1.65,4.26.03,5.8,1.63,1.49,3.55,2.01,5.67,1.69,2.1-.31,3.11-1.9,3.67-3.73.49-1.62.4-3.3-.59-4.76-.84-1.25-1.67-2.57-2.74-3.61-3.18-3.09-4.6-6.81-4.48-11.19.02-.59,0-1.19,0-1.78,0-.06-.06-.11-.18-.3-.28-.03-.66-.11-1.03-.1-5.01.11-9.23-1.59-12.7-5.28-1.96-2.08-4.32-3.42-7.39-2.86-2.67.48-4.09,2.06-4.05,4.75.03,1.76.46,3.39,1.74,4.7,1.69,1.73,4.91,1.46,6.26-.54.71-1.06.46-2.47-.62-3.58-.43-.44-.83-.9-1.33-1.45.45-.18.66-.36.79-.31,1.64.61,2.87,2.4,2.88,4.11,0,1.58-1.09,3.15-2.64,3.83-1.83.81-3.68,1.14-5.48.02-.65-.4-1.29-.92-1.72-1.54-2.44-3.55-2.99-7.45.33-10.73.18-.18.32-.41.48-.61-4.61-3.75-5.6-7.15-3.12-10.74.17.07.44.1.5.22.95,1.97,2.69,2.39,4.64,2.35,2.63-.05,5.07.53,7.34,1.95,2.12,1.33,3.76,3.04,4.71,5.38.8,1.98,1.87,3.77,3.49,5.18.19.16.43.26.82.48,0-.4.08-.67-.01-.85-1.35-2.51-1.33-5.2-.99-7.92.55-4.48.73-8.95-.17-13.4-.68-3.32-2.2-6.16-4.92-8.29-2.33-1.83-4.9-1.99-7.43-.75-2.79,1.37-4.17,4.41-3.75,7.44.45,3.19,3.75,5.74,6.96,5.38,1.78-.2,2.81-1.17,2.8-2.94,0-1.23-.25-2.47-.46-3.7-.11-.64-.2-1.31.54-1.44.33-.06.96.42,1.13.8.9,2.1,1.43,4.23.5,6.51-.72,1.77-2.03,2.74-3.81,3.06-4.1.75-9.13-1.74-10.31-6.11-1.81-6.69,2.67-12.67,8.86-13.22,4.31-.38,7.44,1.5,9.87,4.94,3.37,4.77,3.76,10.16,3.39,15.7-.18,2.69-.55,5.38-.81,8.06-.34,3.61.73,6.56,3.8,8.75,1.43,1.01,2.79,2.23,3.87,3.59,2.25,2.84,5.05,4.15,8.63,3.72,2.68-.32,5.35-.8,8.03-1.07,3.84-.39,7.65-.24,11.32,1.09,3.15,1.14,5.9,2.83,7.95,5.59,1.05,1.41,1.4,2.96,1.56,4.61.76,8.08-7.2,13.41-14.28,10.43-2.93-1.23-4.51-3.93-4.99-7.15-.04-.26-.01-.53-.04-.79-.22-2.45.49-4.46,2.8-5.61,2.32-1.15,4.62-.77,6.81.41.35.19.74.88.65,1.21-.19.72-.84.6-1.47.44-1.08-.27-2.18-.6-3.27-.59-2.06.02-3.35,1.42-3.17,3.47.22,2.52,1.13,4.72,3.62,5.9,2.63,1.25,5.08.63,7.22-1,3.55-2.71,3.67-7.45.35-10.71-2.74-2.68-6.13-4.17-9.92-4.3-3.68-.13-7.38.05-11.05.31-2.26.16-4.48.31-6.65-.39-.91-.29-1.78-.74-2.66-1.12ZM44.82,616.42c-.08,1.83.04,3.65,1.05,5.11,1.26,1.82,2.71,3.53,4.25,5.13,2.35,2.43,3.4,5.18,2.97,8.58-.49,3.94,4.15,7.19,7.84,5.58-1.41-2.47-1.37-2.47-1.64-5.71-.41-4.98-2.67-8.7-7.38-10.75-2.55-1.11-4.48-2.94-5.8-5.39-.45-.83-.86-1.69-1.28-2.54ZM15.6,595.03c-1.17,3.48.83,7.29,4.01,8.09.43.11.92.09,1.36,0,3.5-.75,6.32.5,8.79,2.87.95.91,1.92,1.81,2.84,2.75,1.54,1.57,3.51,2.27,5.55,2.8.37.1.79.01,1.49.01-.43-.36-.56-.49-.72-.59-.28-.18-.56-.35-.86-.49-2.56-1.25-4.55-3.03-5.77-5.67-.63-1.36-1.41-2.71-2.36-3.86-2.34-2.81-5.59-3.82-9.11-4.06-1.88-.13-3.68-.35-5.22-1.87Z"/>
  <path d="M15.48,62.48c-1.39-2.15-1.62-4.17-.95-6.38.66-2.18,2.31-3.44,3.93-4.45-.83-1.39-1.61-2.66-2.35-3.95-1.24-2.17.61-7.39,2.78-8.91,2.56-1.8,6.86-.85,8.3,1.9.58,1.12.63,2.36-.04,3.42-.65,1.04-1.2,2.37-2.89,2.4-.22-.93.4-1.26.84-1.7,1.89-1.91,1.46-3.92-1.05-4.91-2.2-.87-3.81-.37-5.14,1.57-1.81,2.64-1.36,6.64,1.04,7.93,2.38,1.28,5.46.96,7.31-.49,1.08-.85,2.2-1.68,3.15-2.67,2.93-3.09,6.64-4.1,10.71-4.22.64-.02,1.28,0,2.08,0,0-.9.01-1.61,0-2.31-.11-4.38,1.35-8.09,4.52-11.17,1.02-1,1.82-2.24,2.64-3.43.95-1.38,1.07-2.95.75-4.56-.59-2.97-3.04-4.67-5.98-4.02-1.06.24-2.1.77-3.04,1.34-2.79,1.71-1.7,5.11-.1,6.42,1.03.84,2.47.74,3.62-.28.47-.42.79-1.03,1.08-1.43,1.15.45.87.94.57,1.39-1.13,1.7-3.08,2.56-4.74,2.13-1.73-.45-3.32-2.37-3.59-4.32-.38-2.72.61-4.69,3.02-6.08,2.8-1.61,6.75-1.62,8.93.2.55.45.99,1.03,1.57,1.63,1.48-2.37,3.25-4.31,6.24-4.52,2.07-.15,3.14.15,4.36,1.23-.02.13-.01.33-.08.36-2.02,1.05-2.24,2.92-2.26,4.88-.02,3.07-.95,5.8-2.74,8.3-1.48,2.08-3.56,3.25-5.81,4.23-2.1.92-3.75,2.34-4.96,4.44.3.02.53.11.64.04,2.43-1.65,5.13-1.89,7.96-1.56,4.46.52,8.95.86,13.41.19,4.17-.63,7.82-2.36,10.08-6.19,1.58-2.69.94-5.97-1.46-8.28-1.77-1.7-5.53-2.97-8.39-.98-2.06,1.44-3,3.64-2.86,6.18.1,1.68,1.24,2.8,2.99,2.82,1.15.02,2.31-.42,3.47-.56.45-.05,1.09.03,1.36.32.45.49.02.95-.43,1.3-2.44,1.9-7.42,1.16-9.02-1.41-1.2-1.94-1.04-4.1-.36-6.12,2.28-6.77,9.06-7.96,14.1-4.84,4.87,3.02,5.67,7.82,4.28,12.39-.72,2.36-2.64,4.05-4.74,5.41-3.18,2.05-6.67,3.08-10.43,3.21-3.97.14-7.91-.14-11.8-.97-4.27-.92-7.59.41-10.21,3.89-.89,1.18-2.09,2.19-3.32,3.03-3.44,2.35-4.64,5.56-4.05,9.58.73,4.97,1.18,9.96.52,14.98-.64,4.85-2.82,8.87-6.78,11.8-.76.56-1.78.86-2.73,1.08-5.7,1.34-10.95-1.58-12.41-7.28-1.72-6.69,2.05-11.06,8.34-11.94,3.74-.52,6.56,2.32,6.25,6.08-.1,1.23-.56,2.43-.92,3.62-.18.61-.63,1.16-1.3.75-.29-.18-.4-.88-.37-1.32.09-1.24.43-2.47.43-3.7,0-1.89-.87-2.8-2.77-2.91-3.33-.19-7.61,1.99-7,7.05.21,1.78.9,3.25,2.13,4.54,2.5,2.61,7.76,2.66,10.65-1.01,1.76-2.24,3.04-4.7,3.48-7.62.6-4.02.55-8.02.08-12.03-.36-2.99-.48-5.92.98-8.7.08-.14,0-.36,0-.74-1.48.93-2.51,2.05-3.24,3.46-.7,1.34-1.22,2.79-2.06,4.03-2.41,3.56-5.86,5.36-10.15,5.53-.66.03-1.32.04-1.98.08-1.46.1-2.7.58-3.36,2.03-.1.23-.33.39-.7.82ZM61.18,14.48c-4.49-1.46-8.5,1.63-8.07,5.88.22,2.23.05,4.37-1.42,6.18-1.2,1.47-2.53,2.82-3.74,4.29-.83,1.01-1.71,2.03-2.27,3.19-.68,1.41-1.07,2.97-.93,4.57,2.04-3.95,3.85-6.52,8.27-8.22.54-.21,1.03-.58,1.5-.94,3.25-2.5,4.68-5.92,4.8-9.93.06-1.82.26-3.55,1.85-5.01ZM39.7,43.68c-2.84.12-5.3,1.05-7.31,2.99-1.23,1.19-2.41,2.44-3.74,3.5-2.25,1.79-4.76,2.78-7.72,1.99-.47-.13-1.06-.08-1.53.08-2.7.87-4.58,3.8-4.26,6.61.05.4.28.77.48,1.29,1.51-1.33,3.16-1.66,4.9-1.72,2.13-.08,4.13-.67,6.07-1.55,2.83-1.28,4.44-3.65,5.65-6.33,1.26-2.79,3.38-4.62,6.04-5.95.5-.25.95-.61,1.42-.92Z"/>
  <path d="M310.63,36.59c-1.41-2.14-3.02-3.71-5.23-4.62-2.15-.89-4.11-2.05-5.56-3.94-1.57-2.04-2.44-4.35-2.77-6.88-.09-.72-.12-1.45-.13-2.17-.02-1.89-.47-3.54-2.42-4.4.2-.93.89-1.16,1.58-1.36,3.36-.96,6.87.52,8.59,3.61.12.21.23.42.34.62.23-.1.4-.12.45-.21,2.36-3.85,8.36-3.32,11.44-.74,1.63,1.37,2.22,3.25,1.73,5.36-.43,1.87-1.29,3.46-3.27,4.12-2.04.68-4.63-.64-5.24-2.69-.04-.14.13-.35.27-.71.4.33.74.56,1.03.86,1.57,1.6,3.22,1.83,4.5.59,1.65-1.59,1.8-4.23.27-5.68-.52-.49-1.17-.86-1.8-1.19-2.31-1.22-4.77-1.04-6.27.4-1.76,1.7-2.36,4.72-1.11,6.94.86,1.53,2.06,2.87,3.12,4.28.79,1.04,1.65,2.03,2.39,3.1,1.7,2.46,1.84,5.3,1.85,8.16,0,.58,0,1.17,0,1.97.8,0,1.5,0,2.21,0,3.52.05,6.77.94,9.55,3.19,1.32,1.07,2.53,2.28,3.83,3.38,2.26,1.91,4.83,2,7.42.95,1.22-.5,2.11-1.53,2.25-3.02.19-2.1.04-4.08-1.47-5.74-1.61-1.78-4.87-1.64-6.3.26-.81,1.08-.65,2.44.41,3.59.45.49.88,1.01,1.62,1.86-.84-.05-1.23.05-1.43-.1-1.35-1.01-2.47-2.17-2.46-4.03,0-1.83,1.11-2.94,2.53-3.72,2.84-1.54,5.89-.89,7.62,1.82,1.65,2.58,2.56,5.42.87,8.39-.54.95-1.32,1.76-2,2.64,4.58,3.67,5.42,6.39,3.2,10.85-.3-.25-.67-.42-.81-.7-.71-1.42-1.94-1.89-3.4-2-1.25-.09-2.5-.13-3.74-.32-4.45-.67-7.55-3.15-9.38-7.23-.87-1.94-1.87-3.78-3.57-5.13-.18-.15-.43-.21-.74-.37,0,.32-.07.55.01.7,1.53,2.84,1.23,5.85.99,8.9-.22,2.76-.33,5.53-.29,8.29.05,3.2.72,6.28,2.4,9.07,2.21,3.68,4.95,5.53,9.06,4.76,2-.37,3.29-1.62,4.24-3.25,1.27-2.18,1.51-4.54.28-6.79-1.29-2.37-3.56-3.25-6.15-3.23-1.96.02-2.96,1-2.99,2.95-.02,1.16.25,2.35.49,3.5.13.62.34,1.23-.37,1.52-.84.34-1.23-.27-1.39-.96-.32-1.34-.82-2.7-.79-4.04.07-3.63,2.23-5.54,5.43-5.49,6.25.1,11.41,5.33,8.85,12.72-2.03,5.85-8.05,7.99-13.12,6.27-2.25-.76-3.85-2.33-5.13-4.13-2.17-3.05-3.45-6.47-3.63-10.29-.2-4.24,0-8.44.7-12.62.55-3.31.11-6.33-2.35-8.78-.88-.87-2-1.5-2.93-2.33-.88-.78-1.73-1.62-2.45-2.54-2.34-2.97-5.34-4.23-9.05-3.53-4.23.8-8.47,1.27-12.78,1.07-4.12-.18-7.87-1.42-11.19-3.91-3.5-2.63-4.93-6.08-4.15-10.39.71-3.95,3.19-6.47,6.84-7.74,3.37-1.17,6.67-.86,9.38,1.78,2.36,2.3,3.38,5.15,2.86,8.44-.38,2.42-2.33,4.13-4.8,4.15-1.23.01-2.48-.19-3.7-.4-.49-.09-.99-.39-1.38-.73-.24-.21-.48-.82-.36-.97.23-.3.74-.61,1.09-.56.9.13,1.77.56,2.67.66,3.17.36,4.88-1.67,4.06-4.76-1.15-4.29-4.29-5.89-7.81-5.02-4,.98-6.42,4.75-5.32,8.54.39,1.33,1.26,2.64,2.23,3.65,2.31,2.41,5.3,3.65,8.58,4.06,4.34.55,8.69.31,13.02-.21,2.97-.35,5.78-.12,8.32,1.64.08.06.24,0,.66,0ZM312.78,38.63c.05-1.78-.28-3.41-1.02-4.98-1.02-2.15-2.84-3.62-4.43-5.26-2.32-2.41-3.31-5.14-2.76-8.45.1-.62.07-1.34-.16-1.92-1.01-2.61-3.84-4.3-6.62-4.01-.4.04-.77.26-1.37.47,1.55,1.43,1.87,3.08,1.88,4.84,0,.53,0,1.06.06,1.58.58,4.41,2.67,7.83,6.79,9.71,2.74,1.25,4.91,3,6.31,5.68.41.79.87,1.56,1.3,2.34ZM342.07,60.2c.97-2.92-.14-5.95-2.56-7.37-1.04-.61-2.08-.98-3.36-.59-1.64.49-3.33.22-4.77-.63-1.51-.89-2.91-2-4.28-3.11-1.12-.9-2.07-2.03-3.21-2.9-1.7-1.3-3.68-1.92-5.83-2.02.41.48.9.8,1.41,1.06,2.51,1.3,4.58,3.03,5.81,5.66.42.89.93,1.74,1.42,2.59.76,1.32,1.78,2.38,3.08,3.22,2.22,1.43,4.64,2.15,7.24,2.29,1.8.1,3.52.39,5.05,1.8Z"/>
  <path d="M310.05,632.09c.58-1.36,1.43-2.47,3.05-2.84,1.59-.36,3.05-.18,4.13,1.16,2.57,3.19,2.31,7.76-2.73,9.7-3.76,1.44-6.46.74-9.34-2.37-1.5,2.55-3.46,4.43-6.59,4.58-1.5.07-2.97-.38-3.97-1.26.02-.13,0-.33.06-.37,1.93-1.08,2.33-2.86,2.31-4.87-.03-2.85.8-5.46,2.33-7.85,1.52-2.37,3.8-3.81,6.34-4.82,2.19-.87,3.6-2.51,5.1-4.57-1.42.54-2.53,1.01-3.68,1.38-1.72.55-3.49.49-5.28.37-3.68-.24-7.36-.41-11.05-.47-3.62-.05-6.88,1.24-9.72,3.37-1.92,1.44-3.3,3.37-3.41,5.97-.12,2.71,1.05,4.81,3.23,6.17,2.29,1.42,4.81,1.74,7.32.29,1.76-1.01,3.38-4.54,2.96-6.52-.33-1.54-1.4-2.57-3.06-2.57-1.16,0-2.32.34-3.46.61-.66.16-1.3.18-1.45-.52-.07-.34.37-.97.74-1.18,1.85-1.07,3.89-1.39,5.91-.76,2.11.65,3.46,2.15,3.67,4.45.35,3.99-1.23,7.1-4.53,9.24-1.44.93-3.2,1.18-4.94,1.06-6.86-.46-11.36-6.47-9.43-13.44.76-2.73,2.77-4.62,5.1-6.08,3.49-2.19,7.36-3.28,11.46-3.13,3.22.11,6.42.56,9.63.87,1.24.12,2.49.35,3.73.37,2.82.03,5.02-1.21,6.84-3.36,1.18-1.39,2.47-2.76,3.96-3.79,3.45-2.39,4.55-5.61,4.03-9.61-.3-2.35-.64-4.71-.75-7.08-.11-2.37-.1-4.75.1-7.11.35-4.2,2.09-7.81,4.96-10.93,4.38-4.76,13.18-3.74,16.18,2.5,1.63,3.39,1.82,6.69-.22,9.97-1.75,2.82-6.29,4.74-9.5,3.88-2.54-.68-3.53-1.94-3.97-4.8-.26-1.69.34-3.27.95-4.8.14-.35.78-.49,1.19-.73.17.44.51.9.47,1.33-.11,1.24-.53,2.46-.53,3.68,0,1.99,1.31,3.19,3.31,3.07,2.49-.14,4.7-1.09,5.9-3.39,1.15-2.19.92-4.53-.29-6.64-2.54-4.43-8.24-4.81-11.82-.69-2.56,2.95-3.76,6.51-3.87,10.36-.09,3.09.07,6.19.24,9.28.13,2.44.5,4.87-.36,7.25-.23.65-.49,1.3-.59,2.04,1.37-.74,2.42-1.71,3.13-3.09.87-1.69,1.75-3.39,2.82-4.95,1.85-2.69,4.6-4.06,7.75-4.59,1.1-.19,2.23-.15,3.35-.21,1.6-.08,2.98-.52,3.76-2.09.1-.21.37-.34.71-.62,1.24,1.96,1.47,3.89.91,6.05-.58,2.24-2.26,3.47-3.88,4.66.81,1.4,1.77,2.66,2.31,4.09,1.26,3.33-1.05,8.25-4.23,9.39-2.42.86-5.61-.27-6.88-2.49-.67-1.18-.68-2.48.05-3.58.67-1,1.25-2.33,3.12-2.25-.29.57-.41,1-.69,1.29-1.69,1.81-1.99,3.04-.96,4.24,1.22,1.43,3.75,1.96,5.22.95.69-.47,1.3-1.14,1.75-1.85,1.64-2.58.96-6.5-1.45-7.67-2.32-1.12-4.75-1.08-6.94.48-1.12.8-2.23,1.65-3.18,2.64-2.97,3.11-6.69,4.28-10.85,4.42-.65.02-1.29,0-2.23,0,0,1.55.01,2.91,0,4.27-.04,3.51-1.73,6.24-4,8.75-1.14,1.26-2.23,2.61-3.1,4.06-1.38,2.31-.96,5.19.83,7.16,1.45,1.6,3.33,1.55,5.13,1.04,1.15-.33,2.3-1.05,3.19-1.87,1.72-1.6.98-5.16-1.17-6.08-1.22-.52-2.32-.19-3.26.72-.44.42-.87.84-1.31,1.26-.18-.18-.35-.35-.53-.53ZM296.45,640.76c4.25,1.62,8.6-1.73,8.06-5.95-.37-2.93.41-5.45,2.48-7.57,1.06-1.08,2.12-2.16,3.13-3.28,1.85-2.06,2.73-4.5,2.87-7.3-.23.05-.32.04-.35.08-.11.16-.21.33-.29.51-1.47,3.39-3.8,5.82-7.24,7.4-4.3,1.97-6.49,5.61-6.75,10.32-.12,2.11-.14,4.2-1.91,5.79ZM317.94,611.56c.79,0,1.19.08,1.55-.01,1.91-.5,3.77-1.14,5.24-2.55,1.09-1.05,2.15-2.13,3.27-3.15,2.28-2.09,4.89-3.44,8.06-2.78,1.61.33,2.84-.15,4.02-1.06,2.19-1.7,2.98-4.51,1.94-6.76-2.32,1.36-2.33,1.26-5.55,1.69-1.8.24-3.61.72-5.3,1.38-3.01,1.19-4.61,3.78-5.91,6.58-.73,1.59-1.74,2.95-3.19,3.94-1.23.84-2.49,1.64-4.14,2.72Z"/>
  <path d="M248.08,19.39c.06.4.14.71.14,1.03,0,.39-.07.77-.12,1.28H108.86v-2.32h139.22Z"/>
  <path d="M247.66,633.2v2.4H110.52v-2.4h137.14Z"/>
  <path d="M39.84,78.45c.04.53.19.92.08,1.22-1.67,4.9-5.16,7.92-10.36,7.87-1.38-.01-2.77.02-4.15.04-2.88.04-4.97,1.58-6.69,3.67-1.62,1.96-.9,5.44,1.46,6.95,1.88,1.21,4.17.65,5.98-1.73.43-.56.68-1.28.92-1.95.46-1.32-.21-2.3-1.1-3.15-.63-.59-2.08-.75-2.79-.25-.97.69-1.91,1.46-1.85,2.85.04.94.78,1.91,1.62,1.98.96.08,1.4-.53,1.63-1.38.11-.4.32-.78.51-1.22,1.06.51.87,1.24.65,1.92-.47,1.41-1.58,2.11-3.03,1.99-1.19-.1-2.5-1.38-2.77-2.7-.34-1.68.6-3.57,2.32-4.67,1.57-1.01,3.29-.93,4.78.22,2.03,1.57,2.59,3.61,1.49,5.96-1,2.14-2.4,3.9-4.83,4.6-2.44.7-5.61-.16-7.04-3.27-1.7-3.68-.72-7.14,2.62-9.44,2.25-1.55,4.68-2.39,7.43-2.21.85.06,1.71.03,2.57.09,4.82.36,7.33-1.87,9.31-5.85.2-.41.37-.83.58-1.23.05-.09.23-.11.67-.3Z"/>
  <path d="M263.29,30.88c-.28.43-.37.72-.55.81-1.24.67-2.86.3-3.74-.81-.77-.96-.6-2.53.32-3.62,1.16-1.37,2.59-1.73,4.26-1.22,1.8.55,3.12,2.11,3.26,3.79.24,3.06-1.74,5.26-4.81,5.2-2.57-.05-4.73-1.13-6.31-3.16-1.69-2.18-1.35-5.61.62-7.6,3.01-3.03,6.48-3.23,9.92-.7,2.88,2.12,4.29,5.07,4.99,8.44.47,2.25,1.35,4.28,3.17,5.73,1.47,1.16,3.21,1.76,5.06,2.05.61.1,1.22.26,2.19.46-.54.39-.73.64-.92.65-5.24.13-9.5-2.34-10.86-7.79-.59-2.39-1.4-4.65-3.09-6.52-1.28-1.41-2.8-2.38-4.72-2.61-2.7-.32-5.3,1.94-5.21,4.65.02.8.33,1.73.82,2.35,1.11,1.4,2.68,2.1,4.48,2.16,1.29.04,2.44-.69,2.81-1.79.38-1.13.32-2.21-.59-3.11-.96-.96-2.13-.97-3.31-.68-.7.17-1.31,1.38-1.15,2.09.2.87.84,1.08,1.65,1.06.48,0,.97.08,1.69.14Z"/>
  <path d="M318.26,78.59c.72,1.23,1.39,2.5,2.17,3.69,1.5,2.33,3.68,3.51,6.45,3.55,1.84.03,3.7-.17,5.53-.03,3.93.31,6.99,2.11,8.89,5.69,1.39,2.6.5,4.91-1.03,7.01-2.57,3.54-7.62,3.09-10.19-.67-.44-.65-.82-1.36-1.11-2.08-1-2.54.1-5.15,2.57-6.25,1.89-.84,4.11-.01,5.43,2.02,1.15,1.78.9,3.75-.66,5.18-.7.64-2.35.77-3.14.25-1.08-.7-1.68-2.19-1.27-3.23.05-.14.3-.2.61-.39.21.44.46.81.54,1.21.18.9.61,1.47,1.58,1.4.76-.06,1.55-.92,1.66-1.75.18-1.4-.71-2.2-1.67-2.93-.82-.62-1.8-.61-2.62-.13-.98.58-1.73,1.46-1.63,2.74.16,2.1,2.44,4.78,4.72,4.9,1.85.09,3.88-1.4,4.39-3.3.64-2.4-.17-4.44-2.51-6.12-1.41-1.01-2.92-1.79-4.73-1.76-1.38.02-2.77-.05-4.15-.03-5.41.07-8.75-3.13-10.41-7.83-.12-.33.04-.76.07-1.14.17,0,.34,0,.51,0Z"/>
  <path d="M263.27,624.3c-.7.05-1.18.13-1.65.12-.92-.02-1.54.35-1.68,1.29-.12.74.57,1.76,1.33,1.96,1.23.32,2.38.11,3.27-.85.86-.93.88-2.06.38-3.14-.52-1.12-1.52-1.58-2.74-1.57-1.44.01-2.72.56-3.81,1.41-1.73,1.35-1.98,3.18-.96,5.15,1.04,2,3.15,3.07,5.29,2.49,2.4-.65,4.26-2.1,5.39-4.28.78-1.5,1.36-3.14,1.78-4.78,1.4-5.41,5.84-7.95,10.89-7.81.16,0,.31.18.71.42-.5.29-.82.56-1.19.66-1.01.27-2.06.41-3.07.69-3.34.93-5,3.37-5.84,6.56-.37,1.4-.77,2.79-1.29,4.14-1.23,3.21-3.61,5.25-6.81,6.37-2.16.76-5.09.18-7.33-2.57-1.52-1.87-1.73-4.46-.55-6.67,1.28-2.39,5.14-4.18,7.78-3.61,2.69.58,4.19,3.06,3.57,5.88-.48,2.14-3.32,3.71-5.66,3.11-1.2-.3-2.49-1.92-2.56-3.2-.07-1.33.64-2.35,2.05-2.78.97-.3,1.91-.27,2.7,1.02Z"/>
  <path d="M94.38,624.42c.69-1.4,1.61-1.44,2.49-1.17,1.01.31,1.97.79,2.15,2.05.22,1.47-.39,2.89-1.82,3.63-1.43.74-2.96.64-4.32-.24-1.94-1.25-2.63-3.21-1.98-5.31.57-1.84,2.44-3.23,4.54-3.18,2.86.07,5.29,1.16,6.73,3.73,1.3,2.32.93,5-.68,6.81-2.15,2.42-4.76,3.24-7.4,2.29-4.55-1.64-6.81-5.17-7.71-9.7-.47-2.35-1.28-4.55-3.28-5.86-1.49-.97-3.36-1.37-5.07-2-.56-.21-1.35.09-1.67-.93.37-.11.71-.32,1.03-.3,5.08.25,8.96,2.54,10.35,8.02.57,2.24,1.31,4.42,2.88,6.2,1.11,1.25,2.47,2.14,4.07,2.65,2.8.89,5.96-1.41,6.05-4.51.02-.74-.25-1.62-.7-2.2-1.22-1.63-2.99-2.34-5-2.26-1.1.05-2.03.54-2.42,1.69-.38,1.13-.38,2.25.55,3.12.94.88,2.1,1.07,3.32.66.76-.25,1.39-1.38,1.18-2.06-.24-.8-.83-1.15-1.65-1.13-.44,0-.88,0-1.66,0Z"/>
  <path d="M25.14,562.07c-.23-.6-.46-1.03-.56-1.48-.18-.83-.67-1.28-1.5-1.28-.83,0-1.55.73-1.7,1.65-.24,1.47,1.13,3.17,2.69,3.34,1.63.17,3.2-1.15,3.15-2.78-.06-2.2-2.27-4.77-4.32-5.04-1.9-.25-3.29.5-4.36,2.38-.95,1.67-.85,3.83.27,5.21,1.79,2.2,4.07,3.5,6.93,3.65,1.25.06,2.5.04,3.75.02,5.64-.06,8.8,3.1,10.49,7.92.09.26-.04.61-.1,1.39-.52-.59-.82-.84-1.01-1.16-.71-1.18-1.27-2.47-2.11-3.54-1.79-2.3-4.27-3.13-7.14-3.06-2.03.05-4.12.21-6.09-.17-3.72-.71-6.43-2.89-7.67-6.6-.75-2.25.84-5.9,3.13-7.36,2.1-1.34,5.11-1.17,6.97.61,1.02.98,1.93,2.17,2.56,3.43,1.22,2.41.46,4.69-1.79,6.19-1.92,1.27-4.31.71-5.89-1.39-1.44-1.9-1.27-3.88.47-5.46.99-.89,2.42-.9,3.39-.03,1.29,1.15,1.46,2.07.44,3.55Z"/>
  <path d="M332.49,562.09c-1.02-1.47-.85-2.39.43-3.57.95-.88,2.43-.87,3.38.02,1.64,1.53,1.84,3.47.55,5.33-1.4,2.02-3.55,2.72-5.5,1.8-2.08-.98-3.25-3.45-2.6-5.61.63-2.09,1.85-3.8,3.74-4.91,2.78-1.62,6.29-1.05,8.32,2.34,2.42,4.05.59,7.34-2.35,9.66-2.29,1.81-4.94,2.38-7.78,2.31-.66-.02-1.32-.05-1.97-.12-4.42-.46-7.46,1.5-9.41,5.37-.32.64-.63,1.28-1.13,2.32-.31-.62-.68-1.02-.6-1.25,1.4-3.94,3.76-7.29,8.65-7.92,1.43-.18,2.89-.07,4.34-.07,3.26,0,6.06-1.03,8.17-3.63,1.05-1.29,1.26-3.63.41-5.22-.98-1.84-2.45-2.68-4.32-2.48-2.09.23-4.53,3.04-4.45,5.14.06,1.61,1.42,2.81,3.05,2.71,1.55-.1,3.05-1.76,2.89-3.2-.11-.99-.89-1.81-1.79-1.81-.96,0-1.38.59-1.48,1.51-.04.36-.28.69-.54,1.28Z"/>
  <path d="M94.3,30.84c.82-.05,1.27-.11,1.71-.1.89.02,1.58-.23,1.72-1.22.1-.72-.63-1.82-1.35-1.97-1.2-.24-2.37-.18-3.29.82-.74.82-.94,2.32-.34,3.34.61,1.05,1.63,1.67,2.82,1.43,1.2-.24,2.44-.65,3.46-1.3,1.75-1.11,2.2-2.93,1.35-4.86-.95-2.16-2.7-3.21-4.84-2.96-2.77.32-4.71,1.99-6,4.32-.79,1.42-1.3,3.02-1.75,4.6-.77,2.69-2.03,5.02-4.51,6.46-2.12,1.23-4.42,1.71-7.13,1.51.49-1.11,1.21-.99,1.8-1.07,1.87-.24,3.63-.83,5.11-1.96,1.91-1.45,2.88-3.51,3.31-5.87.66-3.64,2.32-6.7,5.52-8.76,2.24-1.44,4.61-1.98,7.11-.74,2.51,1.25,3.98,3.34,3.96,6.12-.01,2.57-1.51,4.38-3.85,5.49-2.35,1.11-4.64,1.53-6.85-.29-1.55-1.28-2.04-3.87-1.08-5.58.97-1.72,3.47-2.8,5.28-2.28,1.65.48,2.81,2.28,2.56,3.95-.17,1.16-1.01,1.7-1.97,1.97-.91.26-1.92.37-2.76-1.05Z"/>
  <path d="M50.18,605.29c1.04-3.2,2.44-6.2,4.87-8.63,1.82-1.81,4.4-1.6,5.78.44.81,1.2.76,2.63-.3,3.59-2.86,2.56-6.29,3.98-9.98,4.83-.09.02-.21-.12-.38-.23Z"/>
  <path d="M50.47,49.51c1.45.52,2.97.92,4.34,1.6,1.86.93,3.71,1.93,5.37,3.17,1.84,1.37,1.53,3.67-.43,4.87-1.85,1.13-3.22.97-4.75-.59-2.38-2.44-3.8-5.43-4.83-8.62.1-.14.2-.28.3-.42Z"/>
  <path d="M307.61,49.64c-1.23,3.4-2.53,6.31-4.81,8.68-1.69,1.76-3.15,2.06-5.02.76-1.69-1.18-2.37-3.01-.44-4.76.91-.82,1.97-1.52,3.06-2.07,1.75-.88,3.58-1.6,5.4-2.33.45-.18.99-.16,1.8-.28Z"/>
  <path d="M327.12,29.15c1.22-3.63,2.61-6.57,5.03-8.91,1.5-1.46,2.75-1.7,4.26-.85,1.79,1,3.26,3.23.7,5.21-1.48,1.15-3.2,2-4.84,2.92-.74.41-1.56.7-2.37.97-.78.25-1.6.39-2.78.67Z"/>
  <path d="M307.61,605.75c-4.08-1.15-7.57-2.38-10.42-4.97-1.25-1.14-1.31-2.53-.27-3.86,1.41-1.8,3.65-2.04,5.36-.49,2.65,2.41,4.07,5.54,5.33,9.31Z"/>
  <path d="M30.33,28.87c-.35.06-.56.16-.72.12-3.26-.85-6.38-2.01-8.98-4.23-1.75-1.49-1.89-2.79-.65-4.42,1.2-1.56,3.27-1.86,4.89-.6,2.08,1.61,3.33,3.86,4.44,6.19.43.91.68,1.92,1.03,2.95Z"/>
  <path d="M327.2,626.25c.38-.03.65-.12.88-.06,3.22.94,6.33,2.14,8.94,4.31,1.67,1.39,1.84,2.5.82,4.07-.93,1.44-2.92,2.02-4.5,1.28-.41-.19-.82-.45-1.13-.77-2.45-2.46-3.96-5.45-5-8.84Z"/>
  <path d="M30.47,626.12c-1.05,3.29-2.4,6.03-4.46,8.39-.95,1.09-2.08,1.77-3.61,1.61-1.55-.15-2.7-1.02-3.14-2.56-.36-1.25.34-2.19,1.17-2.92.82-.73,1.77-1.36,2.75-1.84,1.82-.89,3.7-1.66,5.58-2.43.45-.19,1-.15,1.71-.25Z"/>
  <path d="M40.49,35.35c0,2.1-1.49,3.69-3.57,3.68-2.42-.02-3.75-1.71-3.82-3.69-.06-1.89,1.72-3.64,3.64-3.7,2.15-.06,3.74,1.52,3.75,3.71Z"/>
  <path d="M324.49,35.29c-.14,2.09-1.31,3.57-3.57,3.73-2.13.15-3.77-1.46-3.79-3.63-.02-2.16,1.38-3.72,3.49-3.73,2.27-.01,3.54,1.22,3.86,3.63Z"/>
  <path d="M324.49,619.88c0,1.97-1.82,3.74-3.8,3.7-2.14-.05-3.55-1.5-3.55-3.68,0-2.21,1.57-3.78,3.73-3.72,1.92.06,3.62,1.8,3.63,3.69Z"/>
  <path d="M40.49,619.98c-.05,2.15-1.51,3.6-3.65,3.59-2.02,0-3.81-1.81-3.75-3.78.06-1.91,1.8-3.6,3.73-3.61,2.15-.01,3.72,1.6,3.67,3.79Z"/>
  <path d="M322.07,29c.15-.77.24-1.33.36-1.89.57-2.62.26-5.1-1.05-7.46-1.08-1.95-.95-2.8.52-3.94,1.49-1.15,3.41-1.12,4.67.17.94.96,1.51,2.12,1.68,3.49.24,2.03-.45,3.83-1.54,5.39-1.01,1.43-2.33,2.65-3.55,3.93-.18.19-.57.17-1.09.31ZM323.44,26.93c.14.04.29.08.43.12.85-1.23,1.8-2.4,2.52-3.7.83-1.49.92-3.18.4-4.78-.24-.74-.89-1.44-1.53-1.95-.72-.59-2.06-.39-2.76.19-.76.63-.71,1.44-.27,2.13,1.6,2.49,1.66,5.18,1.2,7.98Z"/>
  <path d="M312.52,49.85c-.08.61-.14,1.22-.25,1.82-.49,2.8-.32,5.45,1.34,7.93.9,1.34.62,2.23-.6,3.26-1.79,1.52-4.1,1.25-5.48-.67-.82-1.15-1.39-2.44-1.18-3.87.56-3.79,2.86-6.41,6.16-8.47ZM311.05,51.95c-2.09,1.74-3.19,3.65-3.37,6.05-.1,1.41.08,2.77,1.2,3.82.69.64,2.39.81,3.14.3.7-.47.81-1.29.32-2.51-.12-.3-.36-.57-.43-.88-.3-1.27-.63-2.53-.82-3.82-.12-.83-.02-1.7-.02-2.96Z"/>
  <path d="M312.36,605.55c-1.98-1.09-3.22-2.59-4.29-4.19-.65-.97-1.11-2.09-1.48-3.21-.74-2.23,0-4.18,1.53-5.8,1.63-1.73,4.67-1.23,5.67.94.26.56.27,1.54-.06,2.03-1.97,2.92-1.96,6.04-1.29,9.29.04.18-.03.37-.08.93ZM311.13,603.34c-.3-2.74-.26-5.33,1.19-7.73.1-.16.15-.37.2-.56.33-1.27-.17-2.04-1.45-2.26-1.52-.26-2.85.73-3.22,2.48-.73,3.42.87,5.93,3.29,8.07Z"/>
  <path d="M322.23,625.84c.85.72,1.45,1.18,1.99,1.68,1.5,1.4,2.76,2.97,3.52,4.91.93,2.38.8,4.64-.91,6.65-1.55,1.82-4.85,1.52-5.86-.61-.29-.61-.28-1.66.07-2.22,1.82-2.95,2.04-6.03,1.11-9.28-.05-.17.02-.38.08-1.12ZM323.37,627.99c.54,3.11.51,5.82-1.14,8.28-.07.11-.1.24-.14.37-.34,1.17.1,1.93,1.28,2.18,1.77.37,3.15-.6,3.54-2.51.69-3.44-1.01-5.87-3.53-8.31Z"/>
  <path d="M307.14,44.63c-2.29,2.74-4.72,4.94-8.29,5.34-1.76.2-3.4-.15-4.74-1.45-1.31-1.27-1.54-3.42-.51-4.89.88-1.26,2.21-1.64,3.57-.78,2.77,1.75,5.72,2.22,8.89,1.55.19-.04.39-.02.58-.02.06,0,.12.05.49.24ZM304.88,45.59c-1.41-.07-2.87.06-4.22-.25-1.44-.33-2.8-1.06-4.17-1.67-.67-.29-1.11-.09-1.53.43-1.1,1.36-.78,3,.81,4.02,2.49,1.6,7.18.29,9.11-2.54Z"/>
  <path d="M327.88,620.83c.38.04.76.05,1.14.12,2.89.48,5.6.12,8.15-1.45,1.57-.97,2.53-.83,3.53.22,1.13,1.18,1.44,2.87.68,4.17-.72,1.23-1.72,2.05-3.2,2.38-3.15.71-5.65-.57-7.97-2.43-.94-.76-1.73-1.69-2.6-2.54.09-.15.18-.31.27-.46ZM329.89,622.23s-.01.2.11.31c1.52,1.28,3.21,2.25,5.14,2.74,1.41.35,2.74.04,3.94-.76,1.26-.83,1.65-2.18,1.02-3.41-.61-1.2-1.14-1.36-2.36-.74-.76.38-1.5.89-2.3,1.05-1.83.37-3.69.55-5.55.81Z"/>
  <path d="M35.47,29.06c-.51-.18-.87-.21-1.08-.4-1.92-1.72-3.72-3.57-4.61-6.05-.83-2.3-.71-4.54,1.01-6.48,1.26-1.42,3.12-1.65,4.64-.64,1.44.95,1.93,2.17,1.12,3.54-1.73,2.91-2.01,5.94-1.08,9.13.05.17,0,.37,0,.9ZM33.96,27.05c0-1.38.01-2.36,0-3.33-.03-1.7.59-3.18,1.37-4.65.8-1.49.14-2.64-1.53-2.71-.65-.03-1.43.25-1.96.64-1.01.75-1.3,1.92-1.33,3.15-.06,2.78,1.46,4.76,3.44,6.9Z"/>
  <path d="M45.13,605.21c.1-.83.18-1.67.3-2.5.33-2.41.07-4.68-1.24-6.81-.94-1.52-.82-2.35.21-3.34,1.35-1.3,2.97-1.66,4.28-.81,1.92,1.26,2.9,3.13,2.56,5.38-.55,3.63-2.82,6.16-5.58,8.29-.17-.07-.34-.14-.51-.22ZM46.43,603.12c2.05-1.58,3.38-3.47,3.54-5.98.09-1.43-.21-2.75-1.33-3.77-.76-.69-2.08-.83-2.93-.32-.75.45-.91,1.23-.48,2.46.08.25.21.48.34.71.89,1.62,1.07,3.36.95,5.16-.04.57-.06,1.15-.08,1.72Z"/>
  <path d="M35.57,626.24c-.14.77-.23,1.45-.39,2.12-.59,2.55-.17,4.96,1.04,7.24,1,1.89.89,2.82-.55,3.95-1.34,1.06-3.47.95-4.7-.25-1.81-1.77-2.06-4.01-1.36-6.22.88-2.82,2.85-4.97,5.17-6.77.12-.1.37-.04.79-.07ZM34.07,628.51c-2.57,1.68-4.06,5.06-3.39,7.7.19.73.63,1.46,1.12,2.03.7.81,2.46.86,3.29.23.75-.57.83-1.34.05-2.65-.98-1.66-1.28-3.44-1.17-5.32.04-.63.06-1.27.09-1.99Z"/>
  <path d="M306.83,610.86c-.57-.06-1.15-.09-1.72-.2-2.58-.49-5.01-.09-7.18,1.37-2.14,1.44-3.27.94-4.27-.46-1.1-1.52-1-3.73.75-5.12,2-1.59,4.24-1.58,6.36-.8,2.47.91,4.6,2.51,6.15,4.74.05.07-.04.23-.08.46ZM304.86,609.82l.18-.36c-.75-.57-1.43-1.29-2.26-1.66-1.36-.61-2.8-1.19-4.26-1.4-1.55-.22-2.99.41-3.87,1.84-.58.95-.39,2.09.35,2.92.8.89,1.51.26,2.3-.06,1.21-.48,2.43-1.02,3.7-1.24,1.25-.21,2.57-.05,3.86-.05Z"/>
  <path d="M327.55,34.23c1.71-2.48,3.89-4.06,6.4-5.04,2.3-.9,4.66-.77,6.61,1.08,1.72,1.64,1.66,3.98-.14,5.53-.92.8-1.67,1-2.68.3-2.89-1.98-6-2.51-9.38-1.73-.17.04-.37-.06-.81-.15ZM329.76,33.26c.26.05.44.12.61.1,2.62-.29,5.08.07,7.38,1.47,1.2.74,2.09.26,2.53-1.14.37-1.19-.24-2.42-1.45-3.11-2.4-1.36-4.62-.55-6.72.63-.84.47-1.95.84-2.35,2.04Z"/>
  <path d="M45.13,49.89c3.04,1.78,5.06,4.2,5.97,7.39.54,1.9.03,3.65-1.23,5.16-1.07,1.29-2.55,1.78-4.06,1.13-1.82-.78-3.03-2.09-1.69-4.16,1.45-2.24,1.67-4.65,1.26-7.2-.12-.77-.17-1.55-.25-2.33ZM46.57,52.1c.2,2.75.02,5.32-1.36,7.71-.09.16-.11.38-.14.57-.22,1.26.22,1.85,1.47,2,1.71.2,2.92-.7,3.29-2.61.63-3.24-.94-5.61-3.26-7.67Z"/>
  <path d="M50.61,44.41c.55.03.92.01,1.27.07,2.88.47,5.59.18,8.15-1.4,1.73-1.07,2.99-.82,3.94.47.93,1.27.81,3.63-.27,4.78-1.38,1.47-3.13,1.78-5.04,1.64-2.29-.16-4.04-1.41-5.73-2.78-.88-.72-1.84-1.41-2.32-2.78ZM52.67,45.6c1.69,1.72,3.59,2.91,5.92,3.3,1.38.23,2.62-.22,3.69-1.06,1.26-.99,1.4-2.43.44-3.66-.46-.6-.98-.89-1.69-.44-2.55,1.62-5.31,2.19-8.36,1.86Z"/>
  <path d="M29.79,34.44c-.61-.08-1.23-.12-1.83-.24-2.65-.51-5.13-.02-7.32,1.49-1.85,1.27-2.77.8-3.67-.11-1.28-1.28-1.5-3.09-.57-4.51,1.15-1.75,2.86-2.49,4.89-2.34,3.8.28,6.38,2.54,8.64,5.26-.05.15-.1.3-.15.45ZM28.15,33.13c-.94-.71-1.57-1.42-2.37-1.76-1.43-.61-2.92-1.24-4.43-1.41-1.59-.17-3.12.42-3.94,2.03-.46.91-.25,1.96.49,2.72.79.81,1.5.36,2.29-.05.8-.42,1.66-.84,2.53-.99,1.66-.28,3.35-.35,5.43-.55Z"/>
  <path d="M29.77,621.07c-.22,1.44-1.54,2.02-2.48,2.82-2.41,2.05-5.14,3.19-8.38,2.26-2.74-.79-3.87-3.86-2.26-6.12.83-1.16,2.08-1.6,3.27-.83,2.88,1.88,5.96,2.32,9.27,1.64.12-.02.26.02.38.05.05.01.09.08.21.18ZM28.22,621.94q-4.45.19-8.58-1.73c-.78-.37-1.35-.26-1.88.45-.93,1.25-.84,2.77.51,3.62.9.57,2.06,1.05,3.09,1.04,2.6-.03,4.66-1.4,6.85-3.38Z"/>
  <path d="M50.42,610.65c2.78-3.22,5.63-5.8,10.07-5.35,2.59.26,5.2,2.49,3.68,5.93-.65,1.47-2.25,2.14-3.58,1.27-2.94-1.92-6.05-2.45-9.43-1.63-.11.03-.24-.07-.75-.22ZM52.68,609.66c2.92-.19,5.65.17,8.18,1.7.96.58,1.52.3,2.09-.67.68-1.17.49-2.57-.7-3.3-.86-.53-1.93-.99-2.91-.99-2.66,0-4.83,1.27-6.66,3.26Z"/>
  <path class="cls-1" d="M44.82,616.42c.43.85.83,1.71,1.28,2.54,1.32,2.45,3.25,4.28,5.8,5.39,4.71,2.05,6.97,5.77,7.38,10.75.26,3.23.23,3.24,1.64,5.71-3.68,1.61-8.33-1.64-7.84-5.58.42-3.4-.62-6.15-2.97-8.58-1.54-1.59-2.99-3.31-4.25-5.13-1.01-1.46-1.13-3.28-1.05-5.11Z"/>
  <path class="cls-1" d="M15.6,595.03c1.54,1.52,3.34,1.74,5.22,1.87,3.51.24,6.76,1.25,9.11,4.06.96,1.15,1.73,2.5,2.36,3.86,1.23,2.64,3.22,4.42,5.77,5.67.29.14.58.31.86.49.16.1.29.23.72.59-.7,0-1.12.08-1.49-.01-2.05-.54-4.02-1.23-5.55-2.8-.92-.94-1.89-1.84-2.84-2.75-2.47-2.37-5.3-3.62-8.79-2.87-.43.09-.93.11-1.36,0-3.18-.8-5.18-4.61-4.01-8.09Z"/>
  <path class="cls-1" d="M61.18,14.48c-1.59,1.46-1.8,3.19-1.85,5.01-.13,4.01-1.55,7.42-4.8,9.93-.47.36-.96.73-1.5.94-4.41,1.7-6.22,4.27-8.27,8.22-.14-1.6.25-3.16.93-4.57.56-1.16,1.44-2.18,2.27-3.19,1.21-1.46,2.54-2.82,3.74-4.29,1.47-1.81,1.64-3.95,1.42-6.18-.42-4.25,3.58-7.34,8.07-5.88Z"/>
  <path class="cls-1" d="M39.7,43.68c-.47.31-.92.67-1.42.92-2.66,1.33-4.78,3.15-6.04,5.95-1.21,2.67-2.82,5.05-5.65,6.33-1.94.88-3.94,1.47-6.07,1.55-1.74.06-3.39.39-4.9,1.72-.2-.52-.44-.9-.48-1.29-.32-2.81,1.57-5.74,4.26-6.61.47-.15,1.06-.2,1.53-.08,2.96.79,5.47-.21,7.72-1.99,1.33-1.06,2.51-2.32,3.74-3.5,2.02-1.94,4.47-2.87,7.31-2.99Z"/>
  <path class="cls-1" d="M312.78,38.63c-.44-.78-.89-1.55-1.3-2.34-1.4-2.68-3.58-4.43-6.31-5.68-4.12-1.88-6.21-5.3-6.79-9.71-.07-.52-.06-1.05-.06-1.58-.01-1.76-.33-3.41-1.88-4.84.59-.21.97-.42,1.37-.47,2.78-.29,5.61,1.39,6.62,4.01.22.58.26,1.3.16,1.92-.55,3.31.45,6.05,2.76,8.45,1.59,1.65,3.4,3.11,4.43,5.26.75,1.57,1.07,3.2,1.02,4.98Z"/>
  <path class="cls-1" d="M342.07,60.2c-1.53-1.4-3.25-1.7-5.05-1.8-2.6-.14-5.02-.85-7.24-2.29-1.31-.84-2.32-1.9-3.08-3.22-.49-.85-1.01-1.7-1.42-2.59-1.23-2.63-3.3-4.36-5.81-5.66-.51-.26-.99-.58-1.41-1.06,2.15.09,4.13.72,5.83,2.02,1.14.87,2.09,2,3.21,2.9,1.37,1.11,2.76,2.22,4.28,3.11,1.44.85,3.13,1.12,4.77.63,1.28-.38,2.32-.02,3.36.59,2.42,1.42,3.53,4.44,2.56,7.37Z"/>
  <path class="cls-1" d="M296.45,640.76c1.78-1.59,1.8-3.68,1.91-5.79.26-4.72,2.45-8.35,6.75-10.32,3.44-1.58,5.77-4.01,7.24-7.4.08-.18.18-.35.29-.51.03-.04.12-.03.35-.08-.14,2.8-1.02,5.24-2.87,7.3-1.01,1.13-2.07,2.2-3.13,3.28-2.07,2.12-2.85,4.64-2.48,7.57.53,4.23-3.82,7.57-8.06,5.95Z"/>
  <path class="cls-1" d="M317.94,611.56c1.65-1.08,2.91-1.88,4.14-2.72,1.45-.99,2.46-2.35,3.19-3.94,1.29-2.8,2.9-5.39,5.91-6.58,1.69-.67,3.5-1.14,5.3-1.38,3.21-.43,3.23-.33,5.55-1.69,1.04,2.25.25,5.06-1.94,6.76-1.18.91-2.41,1.39-4.02,1.06-3.17-.66-5.78.69-8.06,2.78-1.12,1.02-2.18,2.11-3.27,3.15-1.47,1.41-3.33,2.05-5.24,2.55-.35.09-.75.01-1.55.01Z"/>
  <path class="cls-1" d="M323.44,26.93c.46-2.8.4-5.49-1.2-7.98-.44-.69-.49-1.5.27-2.13.7-.58,2.04-.78,2.76-.19.63.51,1.29,1.21,1.53,1.95.52,1.6.43,3.29-.4,4.78-.72,1.3-1.67,2.47-2.52,3.7-.14-.04-.29-.08-.43-.12Z"/>
  <path class="cls-1" d="M311.05,51.95c0,1.26-.1,2.13.02,2.96.19,1.29.52,2.55.82,3.82.07.31.31.58.43.88.49,1.22.38,2.03-.32,2.51-.74.5-2.45.34-3.14-.3-1.12-1.05-1.3-2.41-1.2-3.82.17-2.39,1.28-4.3,3.37-6.05Z"/>
  <path class="cls-1" d="M311.13,603.34c-2.42-2.14-4.02-4.65-3.29-8.07.37-1.75,1.7-2.74,3.22-2.48,1.29.22,1.79,1,1.45,2.26-.05.19-.1.39-.2.56-1.46,2.39-1.49,4.99-1.19,7.73Z"/>
  <path class="cls-1" d="M323.37,627.99c2.52,2.45,4.23,4.87,3.53,8.31-.38,1.91-1.77,2.88-3.54,2.51-1.18-.25-1.62-1.01-1.28-2.18.04-.13.07-.26.14-.37,1.65-2.46,1.68-5.17,1.14-8.28Z"/>
  <path class="cls-1" d="M304.88,45.59c-1.94,2.83-6.62,4.14-9.11,2.54-1.58-1.02-1.9-2.66-.81-4.02.42-.53.86-.73,1.53-.43,1.37.6,2.73,1.33,4.17,1.67,1.36.31,2.82.18,4.22.25Z"/>
  <path class="cls-1" d="M329.89,622.23c1.85-.26,3.72-.45,5.55-.81.81-.16,1.55-.67,2.3-1.05,1.22-.61,1.74-.46,2.36.74.63,1.23.23,2.58-1.02,3.41-1.2.79-2.53,1.11-3.94.76-1.93-.48-3.62-1.46-5.14-2.74-.12-.1-.12-.35-.11-.31Z"/>
  <path class="cls-1" d="M33.96,27.05c-1.99-2.15-3.5-4.13-3.44-6.9.02-1.23.32-2.4,1.33-3.15.53-.39,1.31-.67,1.96-.64,1.67.07,2.33,1.22,1.53,2.71-.79,1.47-1.4,2.96-1.37,4.65.02.98,0,1.95,0,3.33Z"/>
  <path class="cls-1" d="M46.43,603.12c.03-.57.04-1.15.08-1.72.12-1.8-.06-3.55-.95-5.16-.13-.23-.25-.46-.34-.71-.42-1.23-.27-2.01.48-2.46.85-.51,2.17-.37,2.93.32,1.12,1.02,1.42,2.34,1.33,3.77-.16,2.51-1.48,4.4-3.54,5.98Z"/>
  <path class="cls-1" d="M34.07,628.51c-.03.72-.06,1.35-.09,1.99-.11,1.88.19,3.66,1.17,5.32.78,1.32.7,2.09-.05,2.65-.83.63-2.59.58-3.29-.23-.5-.58-.94-1.3-1.12-2.03-.68-2.64.82-6.02,3.39-7.7Z"/>
  <path class="cls-1" d="M304.86,609.82c-1.29,0-2.6-.16-3.86.05-1.27.21-2.49.76-3.7,1.24-.78.31-1.49.95-2.3.06-.74-.83-.94-1.97-.35-2.92.88-1.43,2.32-2.07,3.87-1.84,1.46.21,2.89.8,4.26,1.4.83.37,1.51,1.1,2.26,1.66l-.18.36Z"/>
  <path class="cls-1" d="M329.76,33.26c.4-1.2,1.5-1.57,2.35-2.04,2.1-1.18,4.33-1.99,6.72-.63,1.21.69,1.82,1.92,1.45,3.11-.44,1.4-1.33,1.87-2.53,1.14-2.3-1.41-4.76-1.77-7.38-1.47-.17.02-.34-.06-.61-.1Z"/>
  <path class="cls-1" d="M46.57,52.1c2.32,2.06,3.89,4.42,3.26,7.67-.37,1.91-1.58,2.81-3.29,2.61-1.25-.15-1.69-.74-1.47-2,.03-.19.05-.41.14-.57,1.38-2.38,1.56-4.96,1.36-7.71Z"/>
  <path class="cls-1" d="M52.67,45.6c3.04.33,5.81-.24,8.36-1.86.7-.45,1.22-.16,1.69.44.96,1.23.82,2.67-.44,3.66-1.07.84-2.3,1.29-3.69,1.06-2.33-.38-4.23-1.58-5.92-3.3Z"/>
  <path class="cls-1" d="M28.15,33.13c-2.08.2-3.77.28-5.43.55-.88.15-1.73.57-2.53.99-.79.41-1.51.86-2.29.05-.74-.76-.95-1.81-.49-2.72.82-1.61,2.35-2.21,3.94-2.03,1.51.17,3.01.8,4.43,1.41.79.34,1.43,1.04,2.37,1.76Z"/>
  <path class="cls-1" d="M28.22,621.94c-2.19,1.98-4.26,3.35-6.85,3.38-1.04.01-2.19-.47-3.09-1.04-1.35-.85-1.44-2.37-.51-3.62.52-.71,1.09-.82,1.88-.45q4.13,1.93,8.58,1.73Z"/>
  <path class="cls-1" d="M52.68,609.66c1.83-1.99,4-3.27,6.66-3.26.98,0,2.05.46,2.91.99,1.19.73,1.38,2.13.7,3.3-.57.98-1.14,1.25-2.09.67-2.53-1.53-5.25-1.89-8.18-1.7Z"/>
</svg>